Coordinates
version=1
nRows=4
nColumns=40
inDegrees=yes

Units are S.I. units (second, meters, Newtons, ...)
If the header above contains a line with 'inDegrees', this indicates whether rotational values are in degrees (yes) or radians (no).

endheader
time	pelvis_tilt	pelvis_list	pelvis_rotation	pelvis_tx	pelvis_ty	pelvis_tz	hip_flexion_r	hip_adduction_r	hip_rotation_r	knee_angle_r	knee_angle_r_beta	ankle_angle_r	subtalar_angle_r	mtp_angle_r	hip_flexion_l	hip_adduction_l	hip_rotation_l	knee_angle_l	knee_angle_l_beta	ankle_angle_l	subtalar_angle_l	mtp_angle_l	lumbar_extension	lumbar_bending	lumbar_rotation	arm_flex_r	arm_add_r	arm_rot_r	elbow_flex_r	pro_sup_r	wrist_flex_r	wrist_dev_r	arm_flex_l	arm_add_l	arm_rot_l	elbow_flex_l	pro_sup_l	wrist_flex_l	wrist_dev_l
      8.32499999999999928946	    -15.76610388208390567399	     -3.45230301333782296780	    179.45778070037562201833	      0.22837574806108668080	      0.66564830412890307887	     -0.93042266408600871053	     48.57825025508748950642	    -49.29504502389227127424	      2.61155849210513979486	     77.58941081949762974546	      1.35419068348274551639	     11.61596282075269570555	      0.00000000000000000000	      0.00000000000000000000	     34.28189134738349963527	    -49.82045748099238124951	    -12.27209338118368719961	     69.49337504279100130589	      1.21288820281995834982	      8.62935018363180184053	      0.00000000000000000000	      0.00000000000000000000	    -68.65296722067296286696	     -4.42742872975643919631	     -4.81307573899386120786	     41.80097789109362338422	      4.94643402451173930245	     29.95108726936923204676	      2.87356688626650536023	      9.88017695185884115006	      0.00000000000000000000	      0.00000000000000000000	     49.60153476089261914694	     -9.80414201608403601540	     81.28505884884714305372	      7.85745398638550529569	     83.19957391404757629516	      0.00000000000000000000	      0.00000000000000000000
      8.33000000000000007105	    -15.67676414863230860419	     -3.40689768449485930191	    179.46438991594916956274	      0.22861736896413251130	      0.66665940984873317543	     -0.93022602822051791982	     48.42458352405781596417	    -49.28845189317961228426	      2.32428145318670464903	     77.35534779378953373907	      1.35010551302695902542	     11.40179103412038941201	      0.00000000000000000000	      0.00000000000000000000	     34.24764639783679598395	    -49.81980146875584836152	    -12.38995963203951333753	     69.27830515969309033153	      1.20913452523802034122	      8.45615676042608832574	      0.00000000000000000000	      0.00000000000000000000	    -68.55639856074898830229	     -4.38520725027480295921	     -4.84349129092821595322	     42.08891985110615507892	      4.99317140889044974728	     29.34557439536524725554	      2.90117908651314770907	     10.17260118041459193705	      0.00000000000000000000	      0.00000000000000000000	     49.56520680500265996216	     -9.86330010631056985915	     81.19053107390982404468	      7.86913524060206626132	     83.09288025323648696485	      0.00000000000000000000	      0.00000000000000000000
      8.33500000000000085265	    -15.62856795423078182239	     -3.38743701321972823237	    179.45395114263706659585	      0.22885925369890453007	      0.66766325677758631141	     -0.93011616185709278248	     48.28035929948142523926	    -49.29802417267268310752	      2.06607381971808923282	     77.13230099567724096232	      1.34621261201386843709	     11.30347199884809583637	      0.00000000000000000000	      0.00000000000000000000	     34.04933508303275857543	    -49.81978597290999744018	    -12.61756755992882084172	     69.03851224099865646622	      1.20494934928383545802	      8.18240281529029012120	      0.00000000000000000000	      0.00000000000000000000	    -68.49647277537894751731	     -4.38237228697257474863	     -4.84160348149372943283	     42.43472404897536165436	      5.04496226974719519376	     28.07146027758741624325	      2.94812137071529845045	     10.10983791154933619794	      0.00000000000000000000	      0.00000000000000000000	     49.55538603446190393242	     -9.85730317093666741357	     81.12109382103948007625	      7.83737414245635388710	     83.22358445414189986877	      0.00000000000000000000	      0.00000000000000000000
      8.33999999999999985789	    -15.66866882439161301477	     -3.36469972743325218545	    179.43390879565782825011	      0.22917554907021028821	      0.66884542402880309275	     -0.92996180111985782268	     48.01518772143813151843	    -49.30531168224057836369	      1.79123734006079016190	     76.89132938011262297096	      1.34200686391841572664	     11.17068348322335857858	      0.00000000000000000000	      0.00000000000000000000	     33.77993155825053861463	    -49.81815602045133317688	    -12.91651035865299590455	     68.85370844099172416009	      1.20172391450351745412	      8.32711939242581422604	      0.00000000000000000000	      0.00000000000000000000	    -68.54008375427899579790	     -4.37212434327176424631	     -4.80047520340880584655	     42.25970889505268246467	      5.09379717640083296004	     28.09797589437667042489	      2.85760927900866468221	     10.45690160129468182504	      0.00000000000000000000	      0.00000000000000000000	     49.61806348228467555828	     -9.93183674545057648686	     81.44809036608010899272	      8.01114806468416418284	     82.91337977005557036136	      0.00000000000000000000	      0.00000000000000000000
